<svg aria-hidden="true" style="position:absolute;width:0;height:0" version="1.1" xmlns="http://www.w3.org/2000/svg" xmlns:xlink="http://www.w3.org/1999/xlink" xmlns:ev="http://www.w3.org/2001/xml-events" overflow="hidden"><defs><symbol id="antenna" viewBox="0 0 32 32"><path fill="var(--color1, #212121)" d="M30.773 22.098l-8.443-8.505.937-4.616c.225.09.485.144.758.146h.033a2.16 2.16 0 10-2.029-1.42l-.005-.015-4.96.606L8.973.161a.53.53 0 00-.376-.16.536.536 0 00-.373.155L6.712 1.66a.535.535 0 000 .754l.814.825C6.383 5.301 5.71 7.761 5.71 10.378c0 4.106 1.656 7.824 4.336 10.525l-.001-.001a.49.49 0 00.146.097 2.986 2.986 0 00-.052.546v6.188h-6.4a2.669 2.669 0 00-2.667 2.666v1.067c0 .295.239.534.534.534H26.14a.534.534 0 00.533-.534v-1.067a2.67 2.67 0 00-2.666-2.666h-6.4v-2.742a14.64 14.64 0 003.047.32h.002a14.784 14.784 0 007.117-1.822l-.077.039.818.823a.534.534 0 00.376.16.536.536 0 00.373-.155l1.512-1.504a.535.535 0 000-.754zM23.28 6.233a1.067 1.067 0 11.752 1.822h-.004a1.066 1.066 0 01-.747-1.822h-.002zm-1.256 3.504l-.598 2.946-1.175-1.183 1.774-1.763zm-.605-.902l-1.92 1.909-1.486-1.493 3.406-.416zM24.004 28.8a1.6 1.6 0 011.6 1.6v.534H2.138V30.4a1.6 1.6 0 011.6-1.6h20.267zm-7.466-2.134v1.067h-5.334v-1.067h5.334zM11.204 25.6v-4.053c0-1.294 1.196-2.346 2.667-2.346s2.667 1.053 2.667 2.346V25.6h-5.334zm6.4-1.696v-2.357c0-1.882-1.675-3.413-3.733-3.413h-.058c-1.353 0-2.54.707-3.213 1.771l-.009.016a13.817 13.817 0 01-3.812-9.55c0-2.314.567-4.496 1.569-6.414l-.036.077 18.602 18.709c-1.823.947-3.979 1.502-6.266 1.502-1.079 0-2.128-.124-3.136-.357l.093.018zm11.289-.684L7.836 2.039l.754-.752 7.935 7.98c.004 0 .006.007.009.01l13.115 13.191-.757.752z"/><path fill="var(--color2, #2196f3)" d="M13.876 20.267h-.007a1.6 1.6 0 00-.003 3.2h.007a1.6 1.6 0 00.002-3.2zm.373 1.978a.534.534 0 11-.378-.912.533.533 0 01.373.911h.005z"/></symbol><symbol id="astronaut" viewBox="0 0 32 32"><path fill="var(--color2, #2196f3)" d="M31.974 4.524a.535.535 0 00-.427-.362h-.003l-1.911-.278-.855-1.731c-.179-.365-.777-.365-.956 0l-.855 1.731-1.911.278a.534.534 0 00-.296.91l1.383 1.348-.326 1.903a.532.532 0 00.774.562l1.709-.899 1.709.899a.534.534 0 00.773-.565v.003l-.326-1.903 1.383-1.348a.535.535 0 00.134-.55l.001.004zm-2.463 1.327a.53.53 0 00-.153.472l.191 1.114-1-.526a.525.525 0 00-.501.001l.003-.001-1 .526.191-1.114a.53.53 0 00-.152-.472l-.811-.789 1.119-.163a.532.532 0 00.402-.292l.5-1.013.5 1.013a.532.532 0 00.402.292l1.119.162-.809.79zm-3.377 14.671h-1.067v1.067h1.067v-1.067zm0 2.134h-1.067v1.066h1.067v-1.066zm1.066-1.067h-1.067v1.067H27.2v-1.067zm-2.133 0H24v1.067h1.067v-1.067zm-2.667 4.8h-1.067v1.067H22.4v-1.067zm0 2.134h-1.067v1.067H22.4v-1.067zm1.067-1.067H22.4v1.067h1.067v-1.067zm-2.133 0h-1.067v1.067h1.067v-1.067zM16 24.256h-1.066v1.067H16v-1.067zm0 2.133h-1.066v1.067H16v-1.067zm1.067-1.067H16v1.067h1.067v-1.067zm-2.133 0h-1.067v1.067h1.067v-1.067zm-9.067-19.2H4.801v1.066h1.066V6.122zm0 2.134H4.801v1.066h1.066V8.256zm1.066-1.067H5.866v1.067h1.066V7.189zm-2.133 0H3.733v1.067H4.8V7.189z"/><path fill="var(--color1, #212121)" d="M24.715 14.16a1.774 1.774 0 00-1.179-.703l-.009-.001a1.769 1.769 0 00-1.344.355l.004-.003-1.253.96-1.898 1.417-1.358-.541c2.421-1.086 4.113-3.508 4.113-6.32 0-3.823-3.122-6.934-6.961-6.934S7.869 5.5 7.869 9.324c0 1.386.415 2.674 1.12 3.759l-2.768-.024c-.009 0-.016.005-.023.005a.511.511 0 00-.159.033l.004-.001c-.013.005-.026.007-.038.013-.006.003-.013.003-.019.006l-3.233 1.596-.001.001-1.893.91a.429.429 0 00-.064.036l.001-.001a1.782 1.782 0 00-.594 2.306l-.005-.01c.22.424.592.742 1.043.885l.013.003a1.772 1.772 0 001.388-.133l-.009.005 1.388-.738 2.264-1.169 1.357-.008-5.442 5.415-.001.001-1.339 1.333a1.643 1.643 0 00-.491 1.173v.005a1.668 1.668 0 001.667 1.664h.002a1.67 1.67 0 001.18-.485l1.314-1.309 1.741-1.3.901.897-3.102 3.088a1.645 1.645 0 00-.491 1.174v.004a1.662 1.662 0 001.666 1.664h.003a1.67 1.67 0 001.18-.485l4.488-4.472c.007-.006.016-.009.022-.016l5.166-5.658 3.471.494a.474.474 0 00.262-.032c.017-.006.032-.015.049-.023.019-.01.039-.015.058-.027l3.213-2.133c.012-.008.018-.021.029-.03.013-.01.029-.014.041-.026l1.271-1.191c.348-.326.564-.787.564-1.3 0-.4-.132-.769-.355-1.066l.003.005zM2.13 17.77a.706.706 0 01-.564.05l.005.001a.717.717 0 01-.214-1.258l.002-.001 1.314-.632.316.924.133.389-.992.527zm3.497-1.828l-1.548.8-.255-.746-.184-.537 2.027-1.001-.04 1.484zm15.1-6.62c0 .918-.219 1.785-.599 2.56l-4.181-1.899a1.865 1.865 0 00-.782-1.384l-.006-.004 1.464-4.86c2.377.756 4.104 2.974 4.104 5.588zm-11.789 0c0-3.235 2.644-5.867 5.894-5.867.253 0 .5.022.745.053l-1.432 4.753c-.019 0-.037-.006-.057-.006h-.001a1.872 1.872 0 00-1.872 1.867 1.873 1.873 0 001.872 1.867h.001c.695 0 1.295-.383 1.618-.944l3.863 1.755a5.893 5.893 0 01-4.737 2.389c-3.25 0-5.894-2.632-5.894-5.867zm5.957.8c0 .441-.362.8-.806.8h-.001a.804.804 0 01-.804-.8c0-.441.361-.8.806-.8s.806.359.806.8zM2.464 25.146a.606.606 0 01-.855.001.591.591 0 010-.844l.962-.959.852.848-.959.955zm3.214 3.734a.606.606 0 01-.855.001.591.591 0 010-.844l.963-.959.852.848-.96.955zm3.482-3.469l-.001.001-1.765 1.76-.852-.848 1.765-1.757a.527.527 0 00.09-.136c.007-.014.02-.026.026-.04.016-.041.019-.085.026-.128.003-.025.014-.048.014-.073 0-.035-.013-.07-.02-.105-.006-.032-.006-.064-.019-.096a.536.536 0 00-.092-.138c-.01-.012-.014-.027-.025-.038h-.001l-.001-.002-1.607-1.6c-.017-.017-.039-.024-.058-.038a.563.563 0 00-.084-.057l-.003-.001a.453.453 0 00-.09-.031l-.003-.001a.502.502 0 00-.101-.02h-.002l-.023-.001a.603.603 0 00-.075.005h.003c-.036.005-.069.009-.104.021a.502.502 0 00-.096.046l.002-.001c-.02.011-.043.015-.061.029l-1.774 1.324-.901-.897 2.399-2.386 4.36 4.289-.928.919zm6.819-7.017c-.016-.002-.03.004-.046.003l-.027-.001a.562.562 0 00-.092.008h.003a.484.484 0 00-.187.07l.002-.001a.528.528 0 00-.083.062c-.013.011-.028.016-.04.029l-4.698 5.146-4.328-4.256 2.833-2.818a.535.535 0 00-.378-.911h-.002l-2.219.013.028-1.607 3.104.027a6.928 6.928 0 004.978 2.101h.003c.438 0 .864-.046 1.28-.122.04.032.08.064.129.085l2.41.96.152.759.178.885-3.003-.427zm4.041.178l-.313-1.558 1.446-1.08.946 1.257-2.08 1.381zm3.753-2.831l-.837.785-.931-1.237.831-.637a.735.735 0 01.543-.143.718.718 0 01.621.71.71.71 0 01-.226.521z"/><path fill="var(--color1, #212121)" d="M13.602 18.544l-2.143-2.134a.53.53 0 00-.752 0l-2.143 2.133a.535.535 0 000 .756l2.142 2.134a.53.53 0 00.752 0l2.143-2.134a.532.532 0 000-.756zm-2.519 1.759l-1.387-1.381 1.386-1.381 1.387 1.381-1.387 1.381zm6.081-15.232l-.258 1.036c.071.018 1.738.452 1.738 2.149h1.067c0-2.017-1.666-2.965-2.547-3.184zm2.547 4.251h-1.067v1.066h1.067V9.322z"/></symbol><symbol id="client1" viewBox="0 0 60 32"><path d="M24.533 7.111l2.598 2.46h7.248v6.861l2.598 2.46V7.111H24.533z"/><path d="M22.4 9.467v11.444h12.089v-4.549L27.208 9.47 22.4 9.467zm9.786 9.771h-7.873v-7.697h.556v7.176h7.317v.521zM25.881 23.034l.291-.599h.243l-.424.799v.465h-.22v-.465l-.424-.799h.244l.291.599zm1.249.371h-.49l-.102.294h-.228l.477-1.264h.197l.478 1.264h-.229l-.103-.294zm-.428-.177h.366l-.183-.524-.183.524zm1.293.13c0-.058.016-.112.048-.161s.095-.107.188-.174c-.049-.062-.084-.115-.103-.158s-.029-.085-.029-.126c0-.099.03-.177.09-.234s.141-.087.243-.087c.092 0 .167.027.226.082s.089.121.089.201c0 .053-.013.101-.04.146s-.07.088-.131.132l-.086.063.244.288a.508.508 0 00.053-.232h.183a.632.632 0 01-.109.383l.186.22h-.245l-.071-.084c-.09.068-.198.102-.323.102s-.225-.033-.3-.099a.331.331 0 01-.112-.26zm.418.19a.326.326 0 00.2-.071l-.276-.326-.027.019c-.069.053-.104.113-.104.181 0 .058.019.106.056.142s.088.055.151.055zm-.116-.814c0 .049.03.11.089.183l.096-.066.027-.022a.157.157 0 00.054-.122c0-.033-.012-.061-.037-.084s-.056-.036-.095-.036c-.041 0-.074.014-.098.042s-.036.063-.036.105zm2.296.554c-.013.135-.063.24-.149.316s-.202.113-.346.113a.46.46 0 01-.444-.275.733.733 0 01-.065-.306v-.118c0-.119.021-.224.063-.315a.478.478 0 01.455-.284c.14 0 .252.038.337.114s.135.183.148.321h-.219c-.01-.091-.037-.156-.08-.196s-.104-.061-.187-.061c-.095 0-.169.035-.22.105s-.077.172-.078.306v.112c0 .137.024.241.073.313s.121.108.215.108c.086 0 .151-.019.194-.058s.071-.103.082-.194h.219zm1.206-.188c0 .124-.021.233-.064.326a.486.486 0 01-.458.29c-.102 0-.194-.025-.274-.075s-.142-.122-.186-.214a.768.768 0 01-.066-.32v-.071c0-.123.022-.232.065-.326a.492.492 0 01.459-.292.5.5 0 01.273.075c.08.049.142.12.185.213s.065.201.066.324v.07zm-.22-.066c0-.14-.027-.247-.08-.322s-.128-.112-.225-.112c-.095 0-.169.037-.223.112s-.08.179-.082.315v.073c0 .139.027.246.081.322s.13.114.226.114c.097 0 .172-.037.224-.111s.079-.182.079-.325v-.066z"/></symbol><symbol id="client2" viewBox="0 0 60 32"><path d="M29.147 7.799h.049c.09 0 .187.009.283.017.424.03.845.093 1.259.19V6.988a7.506 7.506 0 00-1.3-.207 9.488 9.488 0 00-.525-.025h-.152c-.88.003-1.756.116-2.608.336-.971.242-1.902.621-2.768 1.126v10.097a11.224 11.224 0 012.638-1.028 11.508 11.508 0 012.214-.34h.03c.125-.006.25-.01.379-.011v-1.034c-.971.012-1.937.141-2.878.382-.348.09-.684.188-1 .297l-.36.122V8.831l.154-.074a10.057 10.057 0 013.771-.954c.143-.007.287-.011.428-.011h.162c.075.002.149.004.224.008z"/><path d="M31.684 8.865a9.303 9.303 0 01-1.505-.122 8.306 8.306 0 01-.47-.095v9.981c.647.16 1.312.239 1.979.233a10.67 10.67 0 002.608-.335 10.57 10.57 0 002.769-1.126V7.484c-.833.452-1.719.798-2.637 1.029-.896.23-1.817.348-2.742.352zm3.991.173l.36-.121v7.875l-.154.074a9.849 9.849 0 01-1.84.661 9.59 9.59 0 01-2.354.305 8.1 8.1 0 01-.702-.03l-.246-.022V9.682l.287.019c.209.014.425.02.659.02a12.206 12.206 0 002.989-.383c.336-.089.669-.188 1-.299zM24.084 21.764a.53.53 0 00-.4-.162.607.607 0 00-.231.043.515.515 0 00-.296.299.588.588 0 00-.041.223v1.349a.643.643 0 00.053.277.482.482 0 00.32.277.762.762 0 00.201.028.56.56 0 00.516-.353.53.53 0 00.043-.215v-.151h-.353v.12a.307.307 0 01-.021.12.221.221 0 01-.051.076.268.268 0 01-.148.052.182.182 0 01-.165-.073.319.319 0 01-.047-.181v-1.258a.44.44 0 01.043-.202c.018-.028.044-.051.075-.066s.064-.02.098-.016c.03-.001.061.005.088.018s.051.033.069.057c.039.052.06.116.058.181v.117h.349v-.137a.633.633 0 00-.161-.426zM26.179 21.749a.626.626 0 00-.401-.148.6.6 0 00-.396.148.56.56 0 00-.137.189.617.617 0 00-.051.261v1.294a.636.636 0 00.051.265.53.53 0 00.137.181.55.55 0 00.186.114.604.604 0 00.611-.114.542.542 0 00.133-.181.62.62 0 00.051-.265v-1.294a.584.584 0 00-.184-.45zm-.164 1.744a.236.236 0 01-.07.188.258.258 0 01-.332 0 .236.236 0 01-.07-.188v-1.294a.236.236 0 01.07-.188.258.258 0 01.332 0 .236.236 0 01.07.188v1.294zM28.931 24.071v-2.449h-.339l-.445 1.297h-.006l-.449-1.297h-.335v2.449h.35v-1.49h.006l.343 1.053h.174l.345-1.053h.006v1.49h.35zM30.918 21.793a.498.498 0 00-.198-.134.783.783 0 00-.254-.038h-.52v2.449h.349v-.957h.18a.638.638 0 00.315-.067.522.522 0 00.192-.187.586.586 0 00.08-.213c.014-.092.02-.185.019-.278a1.42 1.42 0 00-.034-.35.519.519 0 00-.129-.225zm-.18.747a.336.336 0 01-.032.128.197.197 0 01-.09.086.36.36 0 01-.165.031h-.159v-.833h.18a.327.327 0 01.157.031.199.199 0 01.082.09.375.375 0 01.031.137v.163c0 .057.004.116 0 .168h-.004zM32.572 21.622h-.286l-.54 2.449h.349l.103-.526h.476l.103.526h.349l-.553-2.449zm-.322 1.589l.172-.888h.006l.171.888h-.349zM34.827 23.097h-.006l-.527-1.476h-.335v2.449h.349v-1.473h.007l.533 1.473h.328v-2.449h-.349v1.476zM36.959 21.622l-.281.974h-.007l-.281-.974h-.37l.479 1.414v1.035h.349v-1.035l.479-1.414h-.369zM23.111 24.762h.168v.472h.114v-.472h.167v-.097h-.45v.097zM24.525 24.666l-.22.569h.121l.047-.129h.227l.049.129h.124l-.226-.569h-.121zm-.018.343l.077-.211.077.211h-.155zM25.923 25.025h.131v.073a.214.214 0 01-.135.048c-.023.001-.046-.003-.067-.012s-.039-.024-.054-.042a.237.237 0 01-.042-.148c0-.127.055-.19.164-.19.029-.003.057.005.081.021s.041.041.048.069l.112-.022c-.024-.111-.104-.167-.241-.167a.287.287 0 00-.199.073.275.275 0 00-.082.218.31.31 0 00.073.213c.028.029.062.051.099.065s.077.02.117.018a.342.342 0 00.241-.09v-.224h-.246v.096zM27.35 24.666h-.115v.569h.398v-.097h-.283v-.472zM28.557 24.666h-.115v.569h.115v-.569zM29.737 25.046l-.233-.38h-.112v.569h.107v-.372l.228.372h.114v-.569h-.105v.38zM30.804 24.984h.283v-.097h-.283v-.125h.305v-.097h-.42v.569h.432v-.097h-.317v-.154zM33.391 24.89h-.224v-.224h-.114v.569h.114v-.249h.224v.249h.114v-.569h-.114v.224zM34.464 24.984h.284v-.097h-.284v-.125h.306v-.097h-.42v.569h.431v-.097h-.317v-.154zM35.919 24.984c.099-.015.149-.068.149-.158.003-.024-.001-.049-.011-.071s-.025-.041-.045-.056a.318.318 0 00-.166-.033h-.241v.569h.114v-.238h.022a.145.145 0 01.071.013c.017.01.031.025.041.042l.124.181h.137l-.069-.111a.404.404 0 00-.126-.137zm-.115-.079h-.084v-.143h.09a.285.285 0 01.116.014c.008.007.015.017.019.027s.006.021.006.032a.073.073 0 01-.031.057.327.327 0 01-.116.014zM37.017 24.984h.283v-.097h-.283v-.125h.306v-.097h-.421v.569h.432v-.097h-.316v-.154z"/></symbol><symbol id="client3" viewBox="0 0 60 32"><path d="M25.367 23.394c.005 0 .011.001.015.003s.009.005.013.009l.073.077a.604.604 0 01-.206.146.727.727 0 01-.292.052.711.711 0 01-.274-.049.592.592 0 01-.341-.351.773.773 0 01-.047-.273.739.739 0 01.05-.274.642.642 0 01.142-.213.654.654 0 01.22-.139.799.799 0 01.283-.049.704.704 0 01.262.044c.072.03.139.072.197.123l-.061.082a.046.046 0 01-.016.015c-.007.005-.016.007-.025.006s-.019-.004-.027-.009l-.033-.022-.046-.028a.597.597 0 00-.253-.058.537.537 0 00-.203.037.454.454 0 00-.262.267.592.592 0 00-.037.216.636.636 0 00.037.22c.022.06.057.116.102.163a.414.414 0 00.152.101c.06.024.124.035.188.035a.702.702 0 00.112-.007.42.42 0 00.241-.112.05.05 0 01.035-.014zM27.48 23.008a.742.742 0 01-.049.271c-.03.079-.077.15-.138.21s-.135.107-.216.138a.817.817 0 01-.556 0 .627.627 0 01-.354-.352.77.77 0 010-.543.623.623 0 01.139-.213.627.627 0 01.215-.133.805.805 0 01.556 0 .609.609 0 01.354.349.71.71 0 01.049.273zm-.192 0a.623.623 0 00-.035-.218.43.43 0 00-.253-.266.585.585 0 00-.404 0 .43.43 0 00-.254.266.692.692 0 000 .436.45.45 0 00.099.163.44.44 0 00.155.102c.13.046.274.046.404 0a.427.427 0 00.253-.265.623.623 0 00.035-.218zM28.921 23.237l.019.049a2.405 2.405 0 01.045-.097l.467-.809c.009-.014.017-.023.027-.025a.097.097 0 01.038-.004h.138v1.316h-.164v-.968-.041-.045l-.47.821c-.006.012-.016.023-.028.03s-.026.011-.04.011h-.027c-.014 0-.028-.004-.04-.011s-.022-.018-.027-.03l-.484-.826v1.057h-.158v-1.314h.138a.12.12 0 01.038.004c.011.005.02.014.026.025l.477.81a.416.416 0 01.024.047zM30.68 23.171v.493h-.183v-1.315h.408a.797.797 0 01.228.029.44.44 0 01.161.082.33.33 0 01.091.129.424.424 0 01.031.168.373.373 0 01-.133.3.446.446 0 01-.162.087.684.684 0 01-.22.03l-.221-.003zm0-.141h.221a.456.456 0 00.142-.02.277.277 0 00.102-.057.232.232 0 00.062-.087.282.282 0 00.022-.111.244.244 0 00-.082-.197.371.371 0 00-.246-.071h-.221v.542zM33.138 23.666h-.145a.07.07 0 01-.04-.012.086.086 0 01-.024-.03l-.124-.318h-.625l-.129.318a.076.076 0 01-.023.03.061.061 0 01-.041.013h-.145l.549-1.317h.19l.556 1.317zm-.905-.489h.516l-.218-.536a.9.9 0 01-.041-.124l-.021.069c-.006.021-.014.04-.02.056l-.216.535zM33.928 22.356c.011.006.02.014.027.024l.8.992v-.046V22.35h.164v1.317h-.091c-.013 0-.026-.002-.037-.008s-.021-.015-.029-.024l-.799-.992v.045.978h-.164v-1.317h.097c.011 0 .023.002.033.006zM36.268 23.143v.523h-.183v-.523l-.506-.793h.164a.06.06 0 01.039.011c.01.008.019.018.025.03l.316.512a.765.765 0 01.056.117l.024-.057a.425.425 0 01.031-.06l.312-.515a.127.127 0 01.024-.028.056.056 0 01.039-.013h.166l-.507.796zM28.831 20.14c.08.01.16.017.241.024 1.234-.526 2.278-1.387 3.001-2.475s1.094-2.355 1.066-3.643l-1.36-1.296c.276 1.371.147 2.788-.374 4.093s-1.412 2.446-2.575 3.296z"/><path d="M28.345 20.08l.037.007c1.242-.847 2.19-2.029 2.719-3.394s.617-2.85.251-4.263l-1.937-1.845c.783 1.517 1.099 3.215.909 4.895s-.876 3.276-1.979 4.6zM34.914 15.568a6.683 6.683 0 01-2.279 3.639 7.271 7.271 0 01-1.083.741c.937-.262 1.798-.726 2.517-1.356s1.277-1.408 1.63-2.276l-.786-.748z"/><path d="M34.606 15.36l-1.118-1.066c-.021 1.215-.384 2.402-1.05 3.438s-1.611 1.884-2.737 2.454h.005c.251 0 .502-.014.751-.043 1.052-.409 1.982-1.06 2.706-1.895s1.22-1.827 1.443-2.889zM28.507 9.806l-1.334-1.273c-1.193.439-2.219 1.211-2.943 2.215s-1.114 2.193-1.118 3.411c.004 1.346.48 2.653 1.352 3.712s2.089 1.812 3.46 2.139c1.224-1.421 1.94-3.176 2.045-5.011s-.407-3.654-1.461-5.193zM37.689 15.164c-.005-1.597-.673-3.128-1.858-4.257s-2.792-1.766-4.468-1.771a6.51 6.51 0 00-2.265.402l8.17 7.783a5.72 5.72 0 00.422-2.157z"/></symbol><symbol id="client4" viewBox="0 0 60 32"><path d="M20.41 13.095h-.001c-.804 0-1.456.635-1.456 1.419v.001c0 .784.652 1.419 1.456 1.419h.001c.804 0 1.456-.635 1.456-1.419v-.001c0-.784-.652-1.419-1.456-1.419zM31.16 12.642c-.002-1.089-.447-2.132-1.237-2.902s-1.861-1.204-2.978-1.206c-1.118.002-2.189.435-2.979 1.205s-1.235 1.814-1.238 2.903v6.004s8.43-.915 8.431-6.003v-.001zM16 20.616c.002.758.312 1.484.861 2.019s1.294.838 2.072.84c.777-.002 1.522-.304 2.071-.84s.859-1.261.862-2.019v-4.178S16 17.075 16 20.615zm2.933.748c-.152 0-.3-.044-.427-.126a.746.746 0 01-.327-.768c.03-.145.103-.279.21-.383a.778.778 0 011.182.114.738.738 0 01-.095.947.786.786 0 01-.545.22v-.003zM24.921 20.9h-.6v.62h-.313v-1.517h.988v.253h-.675v.392h.6v.252zm1.502-.104c0 .149-.026.28-.079.393s-.128.199-.227.26a.625.625 0 01-.338.092c-.126 0-.238-.03-.336-.091s-.175-.147-.229-.258a.889.889 0 01-.082-.388v-.075c0-.149.027-.281.08-.394a.595.595 0 01.565-.353.62.62 0 01.336.092c.099.06.175.148.228.261s.081.244.081.393v.068zm-.317-.069c0-.159-.028-.28-.085-.363s-.138-.124-.244-.124c-.105 0-.186.041-.243.123s-.086.201-.086.358v.074c0 .155.028.275.085.36s.139.128.246.128c.105 0 .185-.041.242-.123s.085-.203.085-.36v-.074zm1.33.395c0-.059-.021-.104-.063-.135s-.117-.065-.225-.1a1.588 1.588 0 01-.257-.104c-.172-.093-.258-.218-.258-.376 0-.082.023-.155.069-.219s.113-.115.199-.151c.087-.036.184-.054.292-.054s.205.02.29.059a.436.436 0 01.268.41h-.313c0-.069-.022-.123-.066-.161s-.105-.058-.184-.058c-.076 0-.136.016-.178.049s-.064.074-.064.127c0 .049.025.091.074.124s.123.065.22.094c.178.053.307.12.389.199s.122.178.122.296c0 .131-.05.234-.149.309s-.233.111-.401.111c-.117 0-.223-.021-.319-.064s-.169-.102-.22-.176a.45.45 0 01-.075-.258h.314c0 .167.1.251.3.251.074 0 .132-.015.174-.045s.063-.073.063-.127zm1.668-.866h-.465v1.264h-.313v-1.264h-.458v-.253h1.235v.253zm1.092.607h-.6v.406h.704v.251h-1.017v-1.517h1.015v.253h-.702v.361h.6v.245zm.848.102h-.249v.555h-.313v-1.517h.564c.179 0 .317.04.415.12s.146.193.146.339c0 .103-.023.19-.068.259s-.112.124-.203.165l.328.62v.015h-.335l-.284-.555zm-.248-.254h.252c.078 0 .139-.02.182-.059s.065-.096.065-.166c0-.072-.02-.128-.061-.169s-.102-.061-.186-.061h-.251v.455zm1.893.274v.534h-.313v-1.517h.592c.114 0 .214.021.3.063a.469.469 0 01.27.439c0 .149-.051.266-.153.352s-.242.128-.422.128h-.274zm0-.253h.279c.083 0 .145-.019.189-.058s.066-.094.066-.167c0-.074-.022-.134-.066-.18s-.104-.069-.181-.071h-.286v.476zm1.977.131h-.6v.406h.704v.251h-1.017v-1.517h1.015v.253h-.702v.361h.6v.245zm1.45-.607h-.464v1.264h-.313v-1.264h-.458v-.253h1.235v.253zm1.092.607h-.6v.406h.704v.251h-1.017v-1.517h1.015v.253h-.702v.361h.6v.245zm.849.102h-.249v.555h-.313v-1.517h.564c.179 0 .318.04.415.12s.146.193.146.339c0 .103-.022.19-.068.259s-.112.124-.203.165l.328.62v.015h-.336l-.284-.555zm-.249-.254h.252c.079 0 .139-.02.182-.059s.064-.096.064-.166c0-.072-.02-.128-.061-.169s-.102-.061-.187-.061h-.251v.455zm1.836.411c0-.059-.021-.104-.063-.135s-.117-.065-.225-.1a1.588 1.588 0 01-.257-.104c-.172-.093-.258-.218-.258-.376 0-.082.023-.155.069-.219s.113-.115.199-.151c.087-.036.184-.054.292-.054s.205.02.289.059a.436.436 0 01.268.41h-.313c0-.069-.022-.123-.065-.161s-.105-.058-.185-.058c-.076 0-.136.016-.178.049s-.064.074-.064.127c0 .049.025.091.074.124.05.033.123.065.22.094.178.053.307.12.388.199s.122.178.122.296c0 .131-.05.234-.149.309s-.233.111-.401.111c-.117 0-.223-.021-.319-.064s-.169-.102-.22-.176a.45.45 0 01-.075-.258h.313c0 .167.1.251.3.251.074 0 .132-.015.174-.045s.063-.073.063-.127z"/></symbol><symbol id="client5" viewBox="0 0 60 32"><path d="M21.507 21.788a.559.559 0 01.123.359.576.576 0 01-.191.454.829.829 0 01-.554.166h-.974V20.49h.954a.814.814 0 01.529.151.515.515 0 01.185.426.526.526 0 01-.111.348.52.52 0 01-.29.178.555.555 0 01.329.195zm-1.143-.344h.408a.381.381 0 00.259-.076.274.274 0 00.088-.223.277.277 0 00-.086-.223.394.394 0 00-.267-.077h-.401v.597zm.707.873a.286.286 0 00.096-.231.284.284 0 00-.098-.233.418.418 0 00-.277-.082h-.428v.626h.433a.426.426 0 00.274-.079zM23.457 22.767l-.531-.89h-.199v.89h-.456V20.49h.864a.85.85 0 01.602.194.732.732 0 01.064.942.699.699 0 01-.412.231l.565.91h-.496zm-.73-1.201h.373c.259 0 .389-.115.389-.345.003-.047-.004-.094-.021-.138s-.042-.084-.074-.118a.402.402 0 00-.294-.092h-.378l.004.693zM25.952 22.308h-.91l-.161.458h-.479l.835-2.252h.517l.832 2.252h-.479l-.157-.458zm-.122-.345l-.332-.961-.332.961h.665zM29.076 22.767h-.453l-1.016-1.549v1.549h-.452V20.49h.452l1.016 1.558V20.49h.453v2.277zM31.662 22.222a.98.98 0 01-.41.402 1.34 1.34 0 01-.637.144h-.807v-2.277h.807c.221-.006.439.042.637.14a.969.969 0 01.41.397 1.331 1.331 0 010 1.194zm-.519-.055a.837.837 0 000-1.086.785.785 0 00-.567-.194h-.315v1.474h.315a.785.785 0 00.567-.194zM26.236 7.822s5.849 2.217 5.725 5.426v5.427s-5.845-2.218-5.723-5.427l-.002-5.426zM37.173 17.404a7.998 7.998 0 013.716-1.375V14.33a7.629 7.629 0 00-3.716 3.074z"/><path d="M36.509 17.916a7.959 7.959 0 014.38-3.942V9.079s-8.33 3.158-8.154 7.728v7.726s.371-.141.955-.406c0-.247 0-.496.027-.747a8.04 8.04 0 012.792-5.465z"/><path d="M35.717 20.786a8.016 8.016 0 01.291-1.582 7.481 7.481 0 00-1.764 4.667 24.023 24.023 0 001.602-.848 7.996 7.996 0 01-.129-2.237zM36.048 20.814a7.687 7.687 0 00.103 2.026c2.276-1.367 4.833-3.48 4.735-6.033v-.223a7.458 7.458 0 00-4.33 2.031 7.652 7.652 0 00-.508 2.198z"/></symbol><symbol id="client6" viewBox="0 0 60 32"><path d="M30.485 15.415a1.155 1.155 0 01-.203-.731v-1.06c0-.325.067-.572.202-.741s.365-.253.693-.252c.308 0 .526.072.655.216a.938.938 0 01.194.634v.249h-.55v-.252a1.361 1.361 0 00-.016-.247.246.246 0 00-.079-.147.294.294 0 00-.199-.057.32.32 0 00-.21.06.285.285 0 00-.091.162 1.357 1.357 0 00-.022.262v1.287a.707.707 0 00.071.361c.027.038.065.069.11.088s.094.026.142.02c.07.005.14-.015.195-.058a.262.262 0 00.082-.156c.013-.085.019-.172.017-.258v-.261h.55v.238a1.04 1.04 0 01-.19.667c-.126.157-.342.236-.659.236s-.556-.084-.692-.259zM32.777 15.425c-.139-.165-.209-.406-.209-.724v-1.115c0-.315.069-.553.209-.715s.371-.242.697-.242c.324 0 .555.081.694.242s.21.4.21.715v1.116c0 .315-.071.557-.212.723s-.371.249-.692.249c-.32 0-.557-.084-.697-.248zm.954-.267a.674.674 0 00.066-.33v-1.366a.664.664 0 00-.065-.324c-.028-.039-.067-.07-.112-.089s-.096-.026-.145-.019a.276.276 0 00-.258.108.639.639 0 00-.066.324v1.372a.661.661 0 00.066.33.34.34 0 00.257.111.356.356 0 00.257-.111v-.006zM35.04 12.662h.593l.446 2.058.456-2.058h.577l.058 2.971h-.426l-.045-2.065-.44 2.065h-.342l-.456-2.072-.042 2.072h-.431l.054-2.971zM37.833 12.662h.923c.532 0 .797.281.797.844 0 .539-.28.808-.84.807h-.314v1.32h-.57l.004-2.971zm.789 1.269a.41.41 0 00.313-.093.518.518 0 00.082-.335 1.024 1.024 0 00-.027-.27.231.231 0 00-.114-.142.538.538 0 00-.254-.047h-.221v.888h.221zM40.375 12.662h.612l.628 2.971h-.531l-.124-.685h-.546l-.128.685h-.539l.628-2.971zm.523 1.941l-.213-1.247-.213 1.247h.426zM42.122 12.662h.399l.763 1.695v-1.695h.473v2.971h-.379l-.768-1.769v1.769h-.489l.001-2.971zM44.865 14.5l-.635-1.834h.534l.388 1.178.363-1.178h.523l-.627 1.834v1.133h-.547V14.5zM31.365 16.931v.155H30.9v1.207h-.195v-1.207h-.467v-.155h1.127zM32.823 18.294h-.15a.064.064 0 01-.042-.013.075.075 0 01-.025-.031l-.134-.324h-.645l-.134.324a.102.102 0 01-.02.037.064.064 0 01-.042.013h-.15l.57-1.362h.198l.577 1.357zm-.944-.506h.538l-.228-.555a1.007 1.007 0 01-.042-.128l-.022.072-.02.057-.226.553zM33.805 18.16a.56.56 0 00.198-.016.596.596 0 00.082-.025l.076-.033v-.306h-.228c-.006 0-.011 0-.017-.002s-.01-.005-.014-.008-.007-.007-.009-.011-.003-.009-.003-.014v-.105h.442v.522c-.036.024-.074.046-.114.065s-.083.035-.126.046a.99.99 0 01-.142.028 1.539 1.539 0 01-.166.009.78.78 0 01-.287-.051.69.69 0 01-.228-.142.663.663 0 01-.199-.499.773.773 0 01.051-.285.633.633 0 01.375-.357.88.88 0 01.305-.051c.053 0 .106.004.158.012a.715.715 0 01.349.16l-.055.084c-.004.008-.011.014-.019.019s-.017.007-.026.007a.06.06 0 01-.035-.011.928.928 0 01-.056-.032.533.533 0 00-.181-.067.878.878 0 00-.145-.012.61.61 0 00-.22.038.467.467 0 00-.273.277.693.693 0 000 .454.502.502 0 00.28.28.574.574 0 00.226.027zM35.621 18.138h.622v.155h-.812V16.93h.195l-.005 1.207zM36.891 18.294h-.195v-1.363h.195v1.363zM37.616 16.938a.088.088 0 01.029.025l.833 1.027a.4.4 0 010-.049v-1.015h.17v1.368h-.098a.085.085 0 01-.042-.008.13.13 0 01-.031-.026l-.832-1.026v1.059h-.163V16.93h.101c.011 0 .022.002.032.006zM40.083 16.931v.15h-.691v.45h.56v.145h-.56v.465h.691v.15h-.891v-1.359h.891zM19.663 8.517l8.652 2.326v8.15l-8.652-2.325V8.517zm-.555-.695v9.242l9.761 2.625v-9.241l-9.761-2.626z"/><path d="M24.34 23.979l-9.762-2.627v-9.241l9.762 2.626v9.242z"/><path d="M19.27 8.412l8.54 2.297-3.632 3.439-8.541-2.298 3.633-3.438zm-.162-.59l-4.531 4.289 9.762 2.626 4.53-4.289-9.761-2.626zM24.889 23.459l3.98-3.769-3.98-1.071v4.84z"/></symbol><symbol id="clock" viewBox="0 0 32 32"><path fill="var(--color1, #212121)" d="M31.296 15.301C31.295 6.849 24.441-.002 15.988 0S.685 6.855.687 15.308c.002 6.788 4.422 12.543 10.54 14.545l.108.031a.667.667 0 00.529-.065.636.636 0 00.283-.357l3.865-12.25a1.913 1.913 0 10-.852-3.63l.011-.005-5.106-5.107a.638.638 0 00-.902.902l5.103 5.109a1.873 1.873 0 00.533 2.306l.004.003-3.683 11.673C3.842 25.782.116 17.709 2.796 10.431S13.55-.573 20.828 2.108c7.278 2.681 11.004 10.754 8.323 18.032-1.345 3.581-4.003 6.406-7.374 7.938l-.088.036-.398-1.874a.639.639 0 00-1.049-.343l.001-.001-3.837 3.426a.637.637 0 00.227 1.083l.005.001 4.899 1.563a.637.637 0 00.818-.744l.001.004-.391-1.839c5.528-2.374 9.329-7.772 9.329-14.057v-.034.002zm-15.304-.637a.638.638 0 010 1.276.638.638 0 010-1.276zm2.1 14.864l2.184-1.948.603 2.84-2.787-.892z"/><path fill="var(--color2, #2196f3)" d="M15.354 3.185V4.46a.638.638 0 001.276 0V3.185a.638.638 0 10-1.276 0zM3.876 14.664a.638.638 0 000 1.276h1.275a.638.638 0 000-1.276H3.876zm24.232 1.275a.638.638 0 000-1.276h-1.275a.638.638 0 000 1.276h1.275z"/></symbol><symbol id="diagram" viewBox="0 0 32 32"><path fill="var(--color2, #2196f3)" d="M14.926 14.965h1.066v4.798h-1.066v-4.798zm4.264 2.132h1.066v2.665H19.19v-2.665zm-8.529 1.599h1.066v1.066h-1.066v-1.066zm-3.198-.533h1.066v1.599H7.463v-1.599z"/><path fill="var(--color1, #212121)" d="M1.599 28.291h25.586a1.6 1.6 0 001.599-1.599V24.56a1.6 1.6 0 00-1.599-1.599h-.533V9.667l3.028-2.868a1.608 1.608 0 10-.742-.752l-.004-.01-2.281 2.162v-1.23a1.6 1.6 0 00-1.599-1.599H3.731a1.6 1.6 0 00-1.599 1.599v15.992h-.533A1.6 1.6 0 000 24.56v2.132a1.6 1.6 0 001.599 1.599zM30.384 4.837a.533.533 0 010 1.066.533.533 0 010-1.066zM3.198 6.969c0-.294.239-.533.533-.533h21.323c.294 0 .533.239.533.533v2.239l-1.066 1.013V8.036a.534.534 0 00-.534-.534H4.798a.534.534 0 00-.534.533v13.327c0 .294.239.533.534.533h19.189a.534.534 0 00.534-.533v-9.675l1.066-1.01V22.96H3.198V6.969zm4.798 6.93h-.005a1.6 1.6 0 101.112 2.748l1.853.93a.535.535 0 00.636-.122l3.939-4.432 3.872 2.902a.534.534 0 00.686-.039l3.365-3.188v8.131H5.331V8.568h18.123v2.661l-3.771 3.572-3.904-2.927a.534.534 0 00-.718.071v.001l-3.993 4.493-1.493-.746c.011-.064.017-.128.02-.193a1.6 1.6 0 00-1.599-1.599zm.533 1.599a.533.533 0 01-1.066 0 .533.533 0 011.066 0zm3.198 8.528h5.33v.533a.533.533 0 01-.533.533h-4.265a.533.533 0 01-.533-.533v-.533zm-10.66.534c0-.294.238-.533.533-.533h9.062v.533a1.6 1.6 0 001.599 1.599h4.265a1.6 1.6 0 001.599-1.599v-.533h9.062c.294 0 .533.239.533.533v2.132a.533.533 0 01-.533.533H1.601a.533.533 0 01-.533-.533V24.56z"/></symbol><symbol id="envelope" viewBox="0 0 43 32"><path d="M38.667 0H4C1.795 0 0 1.795 0 4v24c0 2.205 1.795 4 4 4h34.667c2.205 0 4-1.795 4-4V4c0-2.205-1.795-4-4-4zm0 2.667c.181 0 .355.037.512.104L21.334 18.238 3.489 2.771c.151-.065.327-.104.512-.104h34.667zm0 26.666H4A1.333 1.333 0 012.667 28V5.587l17.792 15.421c.233.203.539.327.875.327s.642-.124.876-.328l-.002.001L40 5.587V28c0 .736-.597 1.333-1.333 1.333z"/></symbol><symbol id="facebook" viewBox="0 0 32 32"><path d="M21.328 5.312h2.923V.224A36.483 36.483 0 0020.143 0h-.156.008c-4.213 0-7.099 2.65-7.099 7.52V12H8.25v5.688h4.646V32h5.699V17.69h4.459l.707-5.688h-5.168V8.08c0-1.643.443-2.768 2.734-2.768z"/></symbol><symbol id="instagram" viewBox="0 0 32 32"><path d="M31.968 9.408c-.074-1.701-.349-2.869-.744-3.882a7.84 7.84 0 00-1.847-2.837l-.001-.001A7.906 7.906 0 0026.598.861l-.054-.018C25.523.449 24.362.176 22.661.101 20.949.019 20.405 0 16.059 0c-4.344 0-4.888.019-6.595.094-1.701.074-2.869.349-3.88.742a7.847 7.847 0 00-2.839 1.85l-.001.001A7.9 7.9 0 00.919 5.465l-.018.054C.506 6.538.232 7.7.157 9.401c-.082 1.712-.101 2.256-.101 6.602 0 4.344.019 4.888.094 6.595.075 1.701.35 2.869.744 3.882a7.915 7.915 0 001.849 2.837l.001.001c.8.813 1.77 1.443 2.832 1.843 1.019.395 2.182.67 3.882.744 1.707.075 2.251.094 6.595.094 4.346 0 4.89-.019 6.595-.094 1.701-.074 2.869-.349 3.882-.742a8.237 8.237 0 004.664-4.628l.019-.055c.394-1.019.669-2.182.744-3.882.075-1.707.093-2.251.093-6.595s-.006-4.888-.08-6.595zm-2.88 13.066c-.07 1.563-.333 2.406-.552 2.97a5.336 5.336 0 01-3.001 3.024l-.036.013c-.563.219-1.413.482-2.97.55-1.688.075-2.194.094-6.464.094-4.269 0-4.782-.019-6.464-.094-1.563-.069-2.406-.331-2.97-.55a4.953 4.953 0 01-1.836-1.192l-.001-.001a4.978 4.978 0 01-1.184-1.803l-.011-.034c-.218-.563-.48-1.413-.549-2.97-.075-1.688-.094-2.195-.094-6.464 0-4.27.019-4.784.094-6.464.069-1.563.331-2.406.549-2.97a4.897 4.897 0 011.198-1.837l.002-.002a4.972 4.972 0 011.806-1.182l.034-.011c.56-.219 1.411-.48 2.968-.55 1.688-.074 2.194-.093 6.464-.093 4.275 0 4.782.019 6.464.093 1.562.069 2.406.331 2.97.55a4.91 4.91 0 011.837 1.194c.531.52.938 1.144 1.195 1.84.218.56.48 1.411.549 2.968.075 1.688.094 2.194.094 6.464 0 4.269-.019 4.768-.094 6.458z"/><path d="M16.059 7.782a8.223 8.223 0 00-8.219 8.221v.002a8.222 8.222 0 1016.444 0 8.222 8.222 0 00-8.222-8.222h-.002zm0 13.552a5.333 5.333 0 01.001-10.666h.001a5.334 5.334 0 110 10.668zM26.525 7.458a1.92 1.92 0 01-3.84 0 1.92 1.92 0 013.84 0z"/></symbol><symbol id="linkedin" viewBox="0 0 32 32"><path d="M31.992 32H32V20.262c0-5.741-1.237-10.163-7.947-10.163-3.227 0-5.392 1.77-6.277 3.45h-.093v-2.914h-6.365v21.363h6.627V21.42c0-2.786.528-5.48 3.978-5.48 3.398 0 3.448 3.179 3.448 5.658V32h6.621zM.528 10.635h6.635V32H.528V10.635zM3.843 0A3.843 3.843 0 000 3.843c0 2.12 1.722 3.878 3.843 3.878 2.12 0 3.842-1.757 3.842-3.878S5.965.002 3.844 0z"/></symbol><symbol id="smartphone" viewBox="0 0 20 32"><path d="M17 0H3C1.346 0 0 1.346 0 3v26c0 1.654 1.346 3 3 3h14c1.654 0 3-1.346 3-3V3c0-1.654-1.346-3-3-3zM3 2h14a1 1 0 011 1v21H2V3a1 1 0 011-1zm14 28H3a1 1 0 01-1-1v-3h16v3a1 1 0 01-1 1z"/><path fill="var(--color4, #757575)" d="M4.708 27.478a.889.889 0 01.001 1.319l-.001.001a1.048 1.048 0 01-1.417 0l.001.001a.889.889 0 01-.001-1.319l.001-.001a1.048 1.048 0 011.417 0l-.001-.001z"/></symbol><symbol id="twitter" viewBox="0 0 32 32"><path d="M32 6.078c-1.1.493-2.376.857-3.713 1.028l-.068.007a6.556 6.556 0 002.873-3.579l.013-.046a12.88 12.88 0 01-4.076 1.573l-.084.014A6.558 6.558 0 0015.6 9.557v.004c0 .52.043 1.021.152 1.496-5.454-.266-10.28-2.88-13.522-6.861a6.524 6.524 0 00-.902 3.313v.001a6.57 6.57 0 002.914 5.451 6.453 6.453 0 01-2.994-.823l.033.017v.072a6.592 6.592 0 005.213 6.44l.043.008a6.403 6.403 0 01-1.662.215h-.061.003c-.419 0-.843-.024-1.242-.112.85 2.598 3.261 4.509 6.13 4.57a13.093 13.093 0 01-8.122 2.8H1.57h.001-.062c-.531 0-1.055-.034-1.569-.099l.061.006c2.826 1.846 6.287 2.944 10.004 2.944h.063-.003c12.072 0 18.672-10 18.672-18.669 0-.288-.01-.57-.024-.848a13.203 13.203 0 003.258-3.355l.03-.047z"/></symbol><symbol id="close" viewBox="0 0 32 32"><path d="M32 3.223L28.777 0 16 12.777 3.223 0 0 3.223 12.777 16 0 28.777 3.223 32 16 19.223 28.777 32 32 28.777 19.223 16 32 3.223z"/><symbol id="send" viewBox="0 0 32 32"><path d="M32 0l-32 18 10.227 3.788 15.773-14.788-11.998 16.186 0.010 0.004-0.012-0.004v8.814l5.735-6.691 7.265 2.691 5-28z"></path></symbol><symbol id="modal-envelope" viewBox="0 0 43 32"><path d="M37.333 0h-32c-2.2 0-3.98 1.8-3.98 4l-0.020 24c0 2.2 1.8 4 4 4h32c2.2 0 4-1.8 4-4v-24c0-2.2-1.8-4-4-4zM36.533 8.5l-14.14 8.84c-0.64 0.4-1.48 0.4-2.12 0l-14.14-8.84c-0.5-0.32-0.8-0.86-0.8-1.44 0-1.34 1.46-2.14 2.6-1.44l13.4 8.38 13.4-8.38c1.14-0.7 2.6 0.1 2.6 1.44 0 0.58-0.3 1.12-0.8 1.44z"></path></symbol><symbol id="modal-telefon" viewBox="0 0 32 32"><path d="M27.419 20.852l-4.201-0.48c-1.009-0.116-2.002 0.232-2.713 0.943l-3.044 3.044c-4.681-2.382-8.519-6.203-10.901-10.901l3.060-3.060c0.711-0.711 1.059-1.704 0.943-2.713l-0.48-4.168c-0.198-1.671-1.604-2.928-3.292-2.928h-2.862c-1.869 0-3.424 1.555-3.308 3.424 0.877 14.126 12.174 25.407 26.284 26.284 1.869 0.116 3.424-1.439 3.424-3.308v-2.861c0.016-1.671-1.241-3.077-2.911-3.275z"></path></symbol><symbol id="modal-name" viewBox="0 0 32 32"><path d="M16 16c4.42 0 8-3.58 8-8s-3.58-8-8-8c-4.42 0-8 3.58-8 8s3.58 8 8 8zM16 20c-5.34 0-16 2.68-16 8v2c0 1.1 0.9 2 2 2h28c1.1 0 2-0.9 2-2v-2c0-5.32-10.66-8-16-8z"></path></symbol><symbol id="checkbox" viewBox="0 0 34 32"><path d="M30.341 3.556v24.889h-26.548v-24.889h26.548zM30.341 0h-26.548c-2.086 0-3.793 1.6-3.793 3.556v24.889c0 1.956 1.707 3.556 3.793 3.556h26.548c2.086 0 3.793-1.6 3.793-3.556v-24.889c0-1.956-1.707-3.556-3.793-3.556z"></path></symbol><symbol id="full-check" viewBox="0 0 32 32"><path fill="#fff" style="fill: var(--color1, #fff); stroke: var(--color1, #fff)" stroke="#fff" stroke-linejoin="miter" stroke-linecap="butt" stroke-miterlimit="4" stroke-width="0.4267" d="M6.308 16.537l-0.147-0.14-2.205 2.088 7.767 7.41 16.318-15.567-2.19-2.089-14.128 13.465-5.416-5.167z"></path></symbol><symbol id="burgerclose" viewBox="0 0 32 32"><path d="M31.439 3.166l-3.166-3.166-12.553 12.553-12.553-12.553-3.166 3.166 12.553 12.553-12.553 12.553 3.166 3.166 12.553-12.553 12.553 12.553 3.166-3.166-12.553-12.553 12.553-12.553z"></path></symbol><symbol id="burgermenu" viewBox="0 0 48 32"><path d="M0 5.333v-5.333h48v5.333h-48zM0 18.667h48v-5.333h-48v5.333zM0 32h48v-5.333h-48v5.333z"></path></symbol></defs></svg>




